<?xml version="1.0" encoding="UTF-8"?>
<svg width="67px" height="36px" viewBox="0 0 67 36" version="1.1" xmlns="http://www.w3.org/2000/svg" xmlns:xlink="http://www.w3.org/1999/xlink">
    <!-- Generator: Sketch 46.2 (44496) - http://www.bohemiancoding.com/sketch -->
    <title>-e-skrill</title>
    <desc>Created with Sketch.</desc>
    <defs></defs>
    <g id="Page-1" stroke="none" stroke-width="1" fill="none" fill-rule="evenodd">
        <g id="-e-skrill" fill-rule="nonzero">
            <path d="M57.3650278,31.1289444 C57.3650278,29.6177222 56.6503611,28.4210278 55.0535278,28.4210278 C53.6335,28.4210278 52.5894167,29.4595278 52.5894167,31.1643056 C52.5894167,33.0291389 53.7098056,33.8591944 55.2787222,33.8591944 C56.0938889,33.8591944 56.7899444,33.6358611 57.352,33.2729444 L57.1919444,32.1469722 C56.615,32.47825 56.0566667,32.6885556 55.476,32.6885556 C54.7743611,32.6885556 54.2811667,32.3684444 54.1955556,31.5514167 L57.3371111,31.5514167 C57.3538611,31.4639444 57.3650278,31.289 57.3650278,31.1289444 Z M54.1881111,30.6636667 C54.2402222,29.8615278 54.5603333,29.4651111 55.007,29.4651111 C55.5001944,29.4651111 55.7737778,29.8745556 55.8258889,30.6636667 L54.1881111,30.6636667 Z M50.7673889,30.9074722 L52.47775,33.5911944 L50.80275,33.8294167 L49.2878056,31.3225 L49.2878056,33.7531111 L47.6816667,33.7531111 L47.6816667,26.3123889 L49.2840833,26.0555556 L49.2840833,30.66925 L50.6799167,28.5289722 L52.4144722,28.5289722 L50.7673889,30.9074722 Z M66.2778889,32.14325 C66.2778889,33.2431667 65.5204167,33.8405833 64.13575,33.8405833 C63.3038333,33.8405833 62.5258889,33.6042222 61.9805833,33.3194722 L62.1741389,32.0911389 C62.7920278,32.4763889 63.5495,32.71275 64.1506389,32.71275 C64.5935833,32.71275 64.8094722,32.5638611 64.8094722,32.3163333 C64.8094722,32.0483333 64.6605833,31.9348056 63.9198611,31.7505556 C62.6115,31.4099722 62.0550278,31.0600833 62.0550278,30.0811389 C62.0550278,29.1115 62.779,28.4601111 64.0557222,28.4601111 C64.7610833,28.4601111 65.4441111,28.5978333 65.9856944,28.8453611 L65.7884167,30.0699722 C65.2189167,29.7610278 64.57125,29.5767778 64.0668889,29.5767778 C63.6872222,29.5767778 63.5141389,29.7126389 63.5141389,29.9210833 C63.5141389,30.13325 63.6630278,30.2523611 64.4000278,30.4552222 C65.7884167,30.82 66.2778889,31.1736111 66.2778889,32.14325 Z M61.3310556,28.42475 L61.6009167,30.06625 C60.81925,30.1183611 60.2385833,30.4273056 59.8384444,30.8553611 L59.8384444,33.7568333 L58.2285833,33.7568333 L58.2285833,28.5326944 L59.6393056,28.5326944 L59.8105278,29.5656111 C60.1287778,28.9663333 60.5642778,28.4805833 61.3310556,28.42475 Z M44.3093333,28.42475 C42.8744167,28.42475 41.8042778,29.4762778 41.8042778,31.1531389 C41.8042778,32.83 42.8558056,33.8591944 44.2981667,33.8591944 C45.7479722,33.8591944 46.8236944,32.81325 46.8236944,31.1401111 C46.8236944,29.4688333 45.7591389,28.42475 44.3093333,28.42475 Z M44.3093333,32.562 C43.7026111,32.562 43.3601667,31.9813333 43.3601667,31.1419722 C43.3601667,30.2877222 43.6914444,29.7461389 44.3093333,29.7461389 C44.9272222,29.7461389 45.2733889,30.3119167 45.2733889,31.155 C45.2715278,31.9980833 44.9272222,32.562 44.3093333,32.562 Z M24.50525,31.1289444 C24.50525,29.6177222 23.7924444,28.4210278 22.19375,28.4210278 C20.7755833,28.4210278 19.7296389,29.4595278 19.7296389,31.1643056 C19.7296389,33.0291389 20.8500278,33.8591944 22.4152222,33.8591944 C23.2359722,33.8591944 23.9301667,33.6358611 24.4940833,33.2729444 L24.3340278,32.1469722 C23.7589444,32.47825 23.1931667,32.6885556 22.6180833,32.6885556 C21.9127222,32.6885556 21.4251111,32.3684444 21.3376389,31.5514167 L24.4754722,31.5514167 C24.4940833,31.4639444 24.50525,31.289 24.50525,31.1289444 Z M21.3283333,30.6636667 C21.3823056,29.8615278 21.7024167,29.4651111 22.1490833,29.4651111 C22.6404167,29.4651111 22.9158611,29.8745556 22.9698333,30.6636667 L21.3283333,30.6636667 Z M28.4787222,28.5308333 L30.0383333,28.5308333 L28.1809444,33.8573333 C27.7119444,35.2233889 27.0717222,35.6923889 25.9308611,35.6923889 C25.61075,35.6923889 25.4730278,35.6570278 25.3241389,35.62725 L25.1212778,34.3393611 C25.2925,34.3914722 25.4525556,34.4268333 25.7652222,34.4268333 C26.1244167,34.4268333 26.4445278,34.2891111 26.61575,33.9224722 L26.6808889,33.7624167 L24.7825556,28.6555278 L26.5096667,28.4545278 L27.52025,31.7505556 L28.4787222,28.5308333 Z M10.8912222,28.42475 C9.45258333,28.42475 8.38616667,29.4762778 8.38616667,31.1531389 C8.38616667,32.83 9.44327778,33.8591944 10.8800556,33.8591944 C12.3298611,33.8591944 13.4093056,32.81325 13.4093056,31.1401111 C13.4093056,29.4688333 12.3428889,28.42475 10.8912222,28.42475 Z M10.8912222,32.562 C10.2845,32.562 9.94205556,31.9813333 9.94205556,31.1419722 C9.94205556,30.2877222 10.2733333,29.7461389 10.8912222,29.7461389 C11.5128333,29.7461389 11.8515556,30.3119167 11.8515556,31.155 C11.8515556,31.9980833 11.5128333,32.562 10.8912222,32.562 Z M7.56913889,30.0420556 L7.56913889,33.7531111 L5.94811111,33.7531111 L5.94811111,30.4794167 C5.94811111,30.1071944 5.81038889,29.8503611 5.43630556,29.8503611 C5.14969444,29.8503611 4.87238889,30.0346111 4.58577778,30.3081944 L4.58577778,33.7568333 L2.97591667,33.7568333 L2.97591667,30.4794167 C2.97591667,30.1071944 2.83819444,29.8540833 2.46411111,29.8540833 C2.16633333,29.8540833 1.89647222,30.0346111 1.60986111,30.3119167 L1.60986111,33.7568333 L0,33.7568333 L0,28.5308333 L1.41816667,28.5308333 L1.53727778,29.2436389 C2.00627778,28.7634722 2.48644444,28.4266111 3.15830556,28.4266111 C3.87111111,28.4266111 4.26752778,28.7765 4.4555,29.2436389 C4.9245,28.7746389 5.43630556,28.4266111 6.08769444,28.4266111 C7.05733333,28.42475 7.56913889,29.0333333 7.56913889,30.0420556 Z M18.91075,30.0420556 L18.91075,33.7531111 L17.2897222,33.7531111 L17.2897222,30.4794167 C17.2897222,30.1071944 17.1408333,29.8503611 16.7555833,29.8503611 C16.4466389,29.8503611 16.1600278,30.0346111 15.8715556,30.3193611 L15.8715556,33.7531111 L14.2616944,33.7531111 L14.2616944,28.5308333 L15.6798611,28.5308333 L15.7971111,29.2436389 C16.2661111,28.7895278 16.76675,28.4266111 17.4293056,28.4266111 C18.3989444,28.42475 18.91075,29.0333333 18.91075,30.0420556 Z M33.6805278,28.42475 C33.0626389,28.42475 32.6159722,28.7653333 32.2846944,29.1040556 L32.2846944,26.0555556 L30.6748333,26.3123889 L30.6748333,33.4441667 C31.2815556,33.6805278 32.0743889,33.8163889 32.91375,33.8163889 C34.5236111,33.8163889 35.5583889,32.9435278 35.5583889,31.0023889 C35.5583889,29.2324722 34.7488056,28.42475 33.6805278,28.42475 Z M32.8690833,32.5285 C32.6252778,32.5285 32.4987222,32.4931389 32.2846944,32.428 L32.2846944,30.3621667 C32.5508333,30.06625 32.83,29.8615278 33.1724444,29.8615278 C33.6302778,29.8615278 33.9503889,30.2318889 33.9503889,31.1084722 C33.9485278,32.14325 33.4981389,32.5285 32.8690833,32.5285 Z M38.6925,28.42475 C37.2538611,28.42475 36.1818611,29.4762778 36.1818611,31.1531389 C36.1818611,32.83 37.2389722,33.8591944 38.6813333,33.8591944 C40.1292778,33.8591944 41.205,32.81325 41.205,31.1401111 C41.2087222,29.4688333 40.1385833,28.42475 38.6925,28.42475 Z M38.6925,32.562 C38.0820556,32.562 37.7433333,31.9813333 37.7433333,31.1419722 C37.7433333,30.2877222 38.0746111,29.7461389 38.6925,29.7461389 C39.3103889,29.7461389 39.6528333,30.3119167 39.6528333,31.155 C39.6528333,31.9980833 39.3103889,32.562 38.6925,32.562 Z" id="Shape" fill="#000000"></path>
            <path d="M52.7643611,2.22588889 L58.2881389,1.23763889 L58.2881389,22.4356944 L52.7643611,22.4356944 L52.7643611,2.22588889 Z M66.3523333,22.4338333 L60.8248333,22.4338333 L60.8248333,2.22588889 L66.3523333,1.23763889 L66.3523333,22.4338333 Z M39.6602778,22.4338333 L34.0936944,22.4338333 L34.0936944,13.7089444 C34.0936944,9.15480556 36.6862222,6.86563889 41.7893889,6.7 C41.7893889,6.7 42.7087778,6.66463889 43.2540833,6.78002778 L43.2540833,11.3118333 C40.0194722,11.4235 39.6602778,12.5922778 39.6602778,15.3169444 L39.6602778,22.4338333 Z M23.6565833,22.4338333 L17.956,22.4338333 L17.956,2.36361111 L23.6565833,1.23763889 L23.6565833,12.3093889 C25.7968611,9.72058333 26.6808889,7.22111111 26.8037222,6.91216667 L33.3213333,6.91216667 C33.1352222,7.50586111 31.9720278,11.0885 29.3199444,14.4496667 C29.3199444,14.4496667 32.2753889,19.6291389 32.9509722,22.4356944 L26.1244167,22.4356944 C26.1244167,22.4356944 25.3073889,18.7060278 23.6565833,16.2326111 L23.6565833,22.4338333 L23.6565833,22.4338333 Z M44.9421111,2.72280556 C44.9421111,1.21902778 46.1574167,0 47.6611944,0 C49.1668333,0 50.384,1.21902778 50.384,2.72280556 C50.384,4.22658333 49.1668333,5.44375 47.6611944,5.44375 C46.1592778,5.44375 44.9421111,4.22472222 44.9421111,2.72280556 Z M50.4249444,22.4338333 L44.9030278,22.4338333 L44.9030278,6.92891667 L50.4249444,6.92891667 L50.4249444,22.4338333 Z M16.5676111,15.82875 C16.5676111,19.229 13.8410833,22.6590278 7.75338889,22.6590278 C4.93194444,22.6590278 2.52552778,22.3835833 0.388972222,21.8196667 L0.388972222,16.8691111 C1.81458333,17.4516389 4.16516667,18.0713889 6.58647222,18.0713889 C8.79375,18.0713889 10.1095556,17.3381111 10.1095556,16.09675 C10.1095556,14.5929722 8.50341667,14.5017778 7.89855556,14.4645556 C0.766777778,13.9788056 0,9.76152778 0,7.97113889 C0,4.86494444 2.20727778,1.23763889 8.43269444,1.23763889 C12.0413889,1.23763889 13.9899722,1.80155556 15.6668333,2.38780556 L15.7543056,2.41386111 L15.7543056,7.15783333 L15.7543056,7.22111111 L15.6928889,7.20436111 C15.0173056,6.91775 14.2244722,6.63858333 14.2244722,6.63858333 C12.8063056,6.21238889 10.8186389,5.76013889 9.28508333,5.76013889 C8.41222222,5.76013889 6.08583333,5.76013889 6.08583333,7.51516667 C6.08583333,8.97055556 7.69941667,9.07477778 8.39733333,9.12130556 C13.51725,9.46561111 16.5676111,11.9725278 16.5676111,15.82875 Z" id="Shape-Copy" fill="#862165"></path>
        </g>
    </g>
</svg>