<?xml version="1.0" encoding="UTF-8"?>
<svg width="121px" height="29px" viewBox="0 0 121 29" version="1.1" xmlns="http://www.w3.org/2000/svg" xmlns:xlink="http://www.w3.org/1999/xlink">
    <!-- Generator: Sketch 46.2 (44496) - http://www.bohemiancoding.com/sketch -->
    <title>-e-webmoney</title>
    <desc>Created with Sketch.</desc>
    <defs>
        <polygon id="path-1" points="0.0703488372 0.0485969767 0.0703488372 12.840126 14.7022176 12.840126 14.7022176 0.0485969767"></polygon>
    </defs>
    <g id="Page-1" stroke="none" stroke-width="1" fill="none" fill-rule="evenodd">
        <g id="-e-webmoney">
            <path d="M106.795444,0.00550127907 C108.990412,0.00550127907 111.07876,0.508382907 112.952754,1.40794756 C113.246658,1.54054105 113.542475,1.69923395 113.835407,1.85806756 L112.550443,2.9962836 L110.624095,1.01140523 L107.304784,3.92222907 L105.350127,1.83127872 L99.246409,7.2566514 L103.154202,11.5174272 L101.628646,12.840309 L105.484086,17.1010848 L103.958388,18.4234178 L109.473357,24.4838576 L112.737431,21.5197234 L115.576386,24.6962688 C115.013736,25.1197407 114.398043,25.5440286 113.729588,25.9139087 C111.694692,27.0517167 109.338555,27.7120672 106.822486,27.7120672 C99.0852116,27.7120672 92.7951814,21.4942993 92.7951814,13.8468883 C92.7678579,6.25115547 99.0589997,0.00550127907 106.795444,0.00550127907 Z M104.225095,12.999424 L107.571476,10.0352898 L110.570377,13.3431906 L107.223306,16.3070434 L104.225095,12.999424 Z M106.608302,18.7158157 L109.927473,15.7254414 L112.952754,19.0330749 L109.606232,21.9973498 L106.608302,18.7158157 Z M101.843955,7.36286407 L105.189366,4.39872988 L108.187577,7.7066307 L104.841055,10.6706242 L101.843955,7.36286407 Z M107.973098,5.77451395 L110.462926,3.55165953 L112.712161,6.01291209 L110.222333,8.2620207 L107.973098,5.77451395 Z M112.417442,15.963136 L114.90644,13.7401409 L117.155549,16.2270849 L114.66558,18.4514588 L112.417442,15.963136 Z M114.612269,20.9653323 L117.102238,18.7419292 L119.34956,21.203041 L116.860562,23.4518683 L114.612269,20.9653323 Z M115.629725,9.53240814 L117.28924,8.0502707 L118.787867,9.69164977 L117.128619,11.1732385 L115.629725,9.53240814 Z M113.488067,4.63656523 L115.147722,3.128455 L116.647447,4.79539884 L114.986553,6.27739558 L113.488067,4.63656523 Z M117.744312,14.4286591 L119.403827,12.9466623 L120.929651,14.5874927 L119.243755,16.0690814 L117.744312,14.4286591 Z M110.275643,10.750048 L112.765612,8.52705291 L115.01375,10.9877567 L112.524879,13.2111599 L110.275643,10.750048 Z" id="Combined-Shape" fill="#036CB5" fill-rule="nonzero"></path>
            <g id="Group" transform="translate(0.000000, 4.783721)">
                <g id="Group-27" transform="translate(0.000000, 0.929836)">
                    <g id="Fill-25-Clipped">
                        <mask id="mask-2" fill="white">
                            <use xlink:href="#path-1"></use>
                        </mask>
                        <g id="path-1_2_"></g>
                        <polygon id="Fill-25" fill="#036CB5" fill-rule="nonzero" mask="url(#mask-2)" points="7.4133464 3.836305 7.2870843 3.836305 4.9165114 12.840126 2.97890744 12.840126 0.0703488372 0.0485969767 2.08072163 0.0485969767 4.09157279 9.59321767 4.21714547 9.59321767 6.5506164 0.0485969767 8.14892791 0.0485969767 10.6444544 9.59321767 10.7701115 9.59321767 12.6015731 0.0485969767 14.7022176 0.0485969767 11.7929133 12.840126 9.85384605 12.840126"></polygon>
                    </g>
                </g>
                <path d="M17.2528413,8.32437791 L21.3632394,8.32437791 C21.2740652,6.43058721 20.3579545,5.67352116 19.3888712,5.67352116 C18.293793,5.67352116 17.4494663,6.52128093 17.2528413,8.32437791 M22.7992702,11.7172038 L22.7992702,13.0885981 C21.9915671,13.5575435 20.9149626,13.91863 19.6216133,13.91863 C16.6063636,13.91863 15.3677035,12.0422999 15.3677035,9.19206047 C15.3677035,6.44859651 16.7497486,4.46398547 19.4427162,4.46398547 C21.6861828,4.46398547 23.0693957,5.92634081 23.0693957,8.8664157 L23.0693957,9.53404023 L17.2168367,9.53404023 C17.2168367,11.6983644 18.0959862,12.6548131 19.9458088,12.6548131 C20.9149766,12.6548272 21.8125997,12.3114545 22.7992702,11.7172038" id="Fill-28" fill="#036CB5" fill-rule="nonzero"></path>
                <path d="M27.2450635,12.4719484 C27.8196728,12.7244866 28.4484788,12.7618559 28.8980501,12.7618559 C30.2262221,12.7618559 31.2304799,11.9307266 31.2304799,9.0087736 C31.2304799,6.71748384 30.4047674,5.9777236 29.2024495,5.9777236 C28.4837799,5.9777236 27.9633814,6.17681081 27.2450494,6.57294512 L27.2450494,12.4719484 L27.2450635,12.4719484 Z M27.2639592,5.23824477 C27.8011992,4.95053209 28.7166205,4.57033884 29.6864636,4.57033884 C31.9128214,4.57033884 33.1158287,6.1218543 33.1158287,9.0087736 C33.1158287,12.3827742 31.4998034,14.0245613 28.8980642,14.0245613 C27.9458083,14.0245613 26.4737729,13.7177419 25.3960147,13.1391508 L25.3960147,0.547398372 L27.2639733,0.0969969767 L27.2639733,5.23824477 L27.2639592,5.23824477 Z" id="Fill-30" fill="#036CB5" fill-rule="nonzero"></path>
                <polygon id="Fill-32" fill="#036CB5" fill-rule="nonzero" points="41.1959836 11.0557559 41.2859035 11.0557559 45.1269922 0.970462209 47.3543208 0.970462209 47.3543208 13.762948 45.4154647 13.762948 45.4154647 4.48886081 45.253606 4.48886081 41.590725 13.762948 40.4428149 13.762948 36.7791178 4.70567593 36.6181456 4.70567593 36.6181456 13.762948 35.0022609 13.762948 35.0022609 0.970462209 37.1751677 0.970462209"></polygon>
                <path d="M55.2757687,9.19151174 C55.2757687,6.75609128 54.2890981,5.72821035 53.0683629,5.72821035 C51.8838995,5.72821035 50.859719,6.75610535 50.859719,9.19151174 C50.859719,11.6634714 51.7943877,12.6548131 53.0683629,12.6548131 C54.3423381,12.6548131 55.2757687,11.6634855 55.2757687,9.19151174 M48.9754253,9.19151174 C48.9754253,6.03310221 50.6993095,4.46398547 53.0683629,4.46398547 C55.4388514,4.46398547 57.1617929,6.03308814 57.1617929,9.19151174 C57.1617929,12.2760128 55.5282366,13.91863 53.0683629,13.91863 C50.6089816,13.91863 48.9754253,12.2760128 48.9754253,9.19151174" id="Fill-34" fill="#036CB5" fill-rule="nonzero"></path>
                <path d="M58.581756,5.80006465 C59.3895295,5.31215326 61.0957702,4.46398547 63.159791,4.46398547 C65.3139428,4.46398547 66.1203515,5.31215326 66.1203515,7.16993942 L66.1203515,13.7019415 L64.2546019,13.7019415 L64.2546019,7.58543372 C64.2546019,6.16046174 63.555644,5.90790942 62.6389142,5.90790942 C61.9216797,5.90790942 61.0049499,6.23313209 60.4488986,6.55780605 L60.4488986,13.7019274 L58.5817701,13.7019274 L58.5817701,5.80006465 L58.581756,5.80006465 Z" id="Fill-36" fill="#036CB5" fill-rule="nonzero"></path>
                <path d="M70.0722537,8.32437791 L74.1829895,8.32437791 C74.0946455,6.43058721 73.1780423,5.67352116 72.2085509,5.67352116 C71.1131914,5.67352116 70.2705249,6.52128093 70.0722537,8.32437791 M75.6188234,11.7172038 L75.6188234,13.0885981 C74.8114579,13.5575435 73.7342484,13.91863 72.4414478,13.91863 C69.427169,13.91863 68.1876787,12.0422999 68.1876787,9.19206047 C68.1876787,6.44859651 69.5692314,4.46398547 72.26241,4.46398547 C74.5072555,4.46398547 75.890187,5.92634081 75.890187,8.8664157 L75.890187,9.53404023 L70.0369386,9.53404023 C70.0369386,11.6983644 70.9167071,12.6548131 72.7658403,12.6548131 C73.7342343,12.6548272 74.6332502,12.3114545 75.6188234,11.7172038" id="Fill-38" fill="#036CB5" fill-rule="nonzero"></path>
                <path d="M83.3468823,4.46398547 L85.268292,4.46398547 L82.01864,13.4836069 C81.1197648,15.9735758 80.0259248,17.2726937 77.9617633,17.2726937 L77.9617633,15.7942707 C79.1832442,15.7942707 79.9360612,14.8195594 80.3679186,13.4836069 L76.9208256,4.46398547 L78.8959536,4.46398547 L81.1937014,11.103157 L81.3014195,11.103157 L83.3468823,4.46398547 Z" id="Fill-40" fill="#036CB5" fill-rule="nonzero"></path>
                <path d="M19.4614852,22.084723 L19.4614852,21.3056659 C20.1271822,21.643664 20.7606735,21.8133594 21.3609038,21.8133594 C21.8608308,21.8133594 22.243838,21.721709 22.5114169,21.5366352 C22.779066,21.3527997 22.9131087,21.1042431 22.9131087,20.790009 C22.9131087,20.4759155 22.803055,20.240275 22.5828631,20.0834956 C22.3632341,19.9269976 21.9526783,19.7331302 21.3521665,19.5035257 C21.143737,19.4252134 21.0105948,19.3742386 20.9504747,19.349912 C20.8913253,19.3262748 20.7753623,19.2773683 20.6026419,19.2052326 C20.4304138,19.1332376 20.3174617,19.0784077 20.2641514,19.0424172 C20.210433,19.0051886 20.120091,18.9506401 19.9919577,18.8791798 C19.8642464,18.8059466 19.7780972,18.7415071 19.7332287,18.6851717 C19.68912,18.6271902 19.6277758,18.5539571 19.5504202,18.4665698 C19.4732757,18.3794638 19.4210628,18.2928926 19.3941895,18.2046892 C19.367668,18.1173019 19.342047,18.0161824 19.3185505,17.9011762 C19.2949836,17.7860292 19.2828977,17.6626514 19.2828977,17.5297906 C19.2828977,17.0164692 19.4718969,16.6039858 19.8491917,16.2896109 C20.2271057,15.9763335 20.748475,15.8192867 21.4146644,15.8192867 C22.0030762,15.8192867 22.5892227,15.9276943 23.1713874,16.1451988 L23.1713874,16.968632 C22.6066692,16.690529 22.0418243,16.5528563 21.476895,16.5528563 C21.0785658,16.5528563 20.7812435,16.6359805 20.5850265,16.8048458 C20.3888095,16.9737112 20.2905744,17.197125 20.2905744,17.475214 C20.2905744,17.7711715 20.3888095,17.9955421 20.5850265,18.1498452 C20.7812294,18.3046971 21.1322842,18.4752086 21.6377828,18.6618019 C22.5055357,18.9818047 23.1032898,19.2714449 23.430032,19.531412 C23.7573229,19.7901409 23.9207573,20.1776083 23.9207573,20.6899729 C23.9207573,21.2277616 23.6963164,21.6673012 23.2473642,22.0083242 C22.798412,22.3493472 22.1817622,22.5199994 21.3966551,22.5199994 C20.6775493,22.5200135 20.0322394,22.3743633 19.4614852,22.084723 Z M28.5362742,22.3828895 L27.6891335,22.3828895 L27.6265512,21.8577495 C27.1148056,22.2807993 26.6037494,22.4923945 26.0924119,22.4923945 C25.6644799,22.4923945 25.3329399,22.3764315 25.0982562,22.143394 C24.8629534,21.9110458 24.7456819,21.6175645 24.7456819,21.2604598 C24.7456819,21.0730505 24.7797588,20.8940127 24.8482505,20.721855 C24.9167421,20.5495566 25.0297505,20.3826188 25.187149,20.2196628 C25.3446741,20.0564253 25.5824531,19.9254921 25.900458,19.825456 C26.218477,19.7252934 26.6007807,19.6758241 27.0468486,19.6758241 L27.5999593,19.6758241 L27.5999593,19.43139 C27.5999593,19.0270249 27.5256287,18.7516655 27.3768972,18.6030043 C27.2278843,18.4550185 26.9783007,18.38111 26.627654,18.38111 C26.1995813,18.38111 25.6732031,18.5583609 25.0491386,18.9154657 L25.0491386,18.1912244 C25.6913531,17.8955342 26.321327,17.746465 26.9396229,17.746465 C27.5399236,17.746465 27.9565857,17.8709543 28.1881037,18.1189621 C28.4203112,18.3658724 28.5362742,18.740691 28.5362742,19.2405617 L28.5362742,22.3828895 L28.5362742,22.3828895 Z M27.6088936,20.3093857 L27.1358258,20.3093857 C26.1605658,20.3093857 25.6732031,20.602459 25.6732031,21.1881974 C25.6732031,21.3941648 25.7383321,21.5419958 25.8693357,21.6361226 C26.0004097,21.7299679 26.1639285,21.7762715 26.3603284,21.7762715 C26.609504,21.7762715 26.8505753,21.7158137 27.082431,21.5947715 C27.3142867,21.4748267 27.4899619,21.3360426 27.6088795,21.1789958 L27.6088795,20.3093857 L27.6088936,20.3093857 Z M29.9855024,24.1944987 L29.9855024,18.4088556 C30.2472564,18.209079 30.5559893,18.0484585 30.9130941,17.9279509 C31.2700581,17.8081328 31.6202969,17.7464509 31.9656534,17.7464509 C33.2019076,17.7464509 33.8206256,18.5044878 33.8206256,20.0202801 C33.8206256,20.8049651 33.6601458,21.4056879 33.3388345,21.8214636 C33.0178609,22.2384774 32.5575122,22.4458095 31.9564517,22.4458095 C31.5401273,22.4458095 31.1922945,22.3401456 30.9131081,22.1301965 L30.9131081,24.1944987 L29.9855024,24.1944987 L29.9855024,24.1944987 Z M30.9041598,18.715675 L30.9041598,21.4603771 C31.0230774,21.5745533 31.1729767,21.659605 31.3544205,21.7173192 C31.5359205,21.7746113 31.6951058,21.803201 31.831681,21.803201 C32.1584936,21.803201 32.4159703,21.6756867 32.6033234,21.4191667 C32.790606,21.162098 32.8838323,20.6958963 32.8838323,20.0202942 C32.8838323,19.4709683 32.7877921,19.06839 32.5944735,18.8162598 C32.4012252,18.561794 32.1497141,18.4356585 31.8404887,18.4356585 C31.4901797,18.4356585 31.17807,18.5286737 30.9041598,18.715675 Z M35.9478478,17.7930359 L35.9478478,22.3828895 L35.0203265,22.3828895 L35.0203265,18.018926 L35.9478478,17.7930359 Z M34.8774902,16.4612199 C34.8774902,16.2982638 34.938356,16.1553713 35.0601017,16.030882 C35.1823821,15.9072228 35.3236285,15.8451188 35.4835736,15.8451188 C35.6445317,15.8451188 35.7857219,15.9072228 35.9078615,16.030882 C36.0297338,16.1553713 36.0905997,16.2982638 36.0905997,16.4612199 C36.0905997,16.6241759 36.0297338,16.7680393 35.9078615,16.8922472 C35.7857078,17.014809 35.6445317,17.0769129 35.4835736,17.0769129 C35.3236426,17.0769129 35.1823962,17.014809 35.0601017,16.8922472 C34.9383701,16.7680252 34.8774902,16.6241759 34.8774902,16.4612199 Z M39.4216593,21.8577355 C39.8500697,21.8577355 40.322251,21.7006887 40.8396949,21.3874113 L40.8396949,22.0755073 C40.3642212,22.3536103 39.8379134,22.4923805 39.2611795,22.4923805 C38.5357705,22.4923805 38.0023152,22.2839509 37.6604058,21.8672044 C37.318412,21.4503313 37.1474924,20.8681665 37.1474924,20.1196127 C37.1474924,19.4069227 37.3230269,18.8328621 37.6733922,18.3996399 C38.0245877,17.9650388 38.5236283,17.7464369 39.1716677,17.7464369 C39.7429706,17.7464369 40.1853381,17.9341276 40.5012185,18.3088195 C40.8162124,18.6836522 40.9733295,19.232148 40.9733295,19.9563893 L40.9733295,20.2919251 L38.0661498,20.2919251 C38.0661498,20.8294324 38.1762035,21.2252853 38.395917,21.4772749 C38.6160103,21.7318814 38.9579338,21.8577355 39.4216593,21.8577355 Z M39.1448648,18.3541805 C38.8658753,18.3541805 38.6307133,18.466021 38.4404197,18.6884781 C38.2504637,18.9121593 38.1312647,19.2448108 38.0837933,19.6842097 L40.1261044,19.6842097 C40.1021295,19.2380714 39.9983931,18.9054199 39.8139244,18.6851717 C39.6299622,18.4642342 39.406886,18.3541805 39.1448648,18.3541805 Z M42.1549649,22.3828895 L42.1549649,18.4173819 C42.8862833,17.9702869 43.6444467,17.7464509 44.4296242,17.7464509 C44.9588163,17.7464509 45.3360549,17.8559559 45.5620013,18.0734605 C45.788018,18.290965 45.9009701,18.6347457 45.9009701,19.1051965 L45.9009701,22.3828755 L44.9735895,22.3828755 L44.9735895,19.313626 C44.9735895,18.9818047 44.9050979,18.7581235 44.7684523,18.644074 C44.6315957,18.5286597 44.4325788,18.4717756 44.1707686,18.4717756 C43.8142126,18.4717756 43.4513392,18.5808726 43.0829083,18.7979691 L43.0829083,22.3828755 L42.1549649,22.3828755 L42.1549649,22.3828895 Z M48.2332029,17.9650529 L49.6424449,17.9650529 L49.4193828,18.5808866 L48.2332029,18.5808866 L48.2332029,20.9706929 C48.2332029,21.5745673 48.4889772,21.8762935 49.0001741,21.8762935 C49.196377,21.8762935 49.3954783,21.8343797 49.5983502,21.7496093 L49.5983502,22.3286084 C49.3186714,22.4375647 48.9854712,22.4923945 48.599045,22.4923945 C48.1530474,22.4923945 47.8260942,22.3637828 47.6178053,22.1064327 C47.4098542,21.8510101 47.3056957,21.5140955 47.3056957,21.096547 L47.3056957,17.3668205 L48.233217,16.6869693 L48.233217,17.9650529 L48.2332029,17.9650529 Z M51.4579795,17.7930359 L51.4579795,22.3828895 L50.5301206,22.3828895 L50.5301206,18.018926 L51.4579795,17.7930359 Z M50.387636,16.4612199 C50.387636,16.2982638 50.4486426,16.1553713 50.5698255,16.030882 C50.6916978,15.9072228 50.8328738,15.8451188 50.993846,15.8451188 C51.1541851,15.8451188 51.2957833,15.9072228 51.4172476,16.030882 C51.5394013,16.1553713 51.6003374,16.2982638 51.6003374,16.4612199 C51.6003374,16.6241759 51.5394013,16.7680393 51.4172476,16.8922472 C51.2957833,17.014809 51.1541992,17.0769129 50.993846,17.0769129 C50.8328879,17.0769129 50.6916978,17.014809 50.5698255,16.8922472 C50.4486285,16.7680252 50.387636,16.6241759 50.387636,16.4612199 Z M57.7721957,18.109465 L57.7721957,18.8328762 C57.3261278,18.5314173 56.8741506,18.38111 56.4167424,18.38111 C56.1848164,18.38111 55.9945791,18.4263162 55.8454958,18.5171365 C55.697102,18.6070001 55.622701,18.7525097 55.622701,18.9506401 C55.622701,19.1388795 55.7042494,19.2878221 55.8677542,19.3993953 C56.0313997,19.5113766 56.2886091,19.624596 56.6397342,19.7385049 C56.8359371,19.8050127 56.9828255,19.8566628 57.0807229,19.8926673 C57.1791691,19.9297693 57.3081185,19.9902271 57.46895,20.0741673 C57.6293594,20.1590784 57.7500077,20.2427513 57.8301069,20.3279437 C57.9104171,20.4127141 57.9831719,20.5237386 58.0487792,20.6630574 C58.1141755,20.8018276 58.1464656,20.9553006 58.1464656,21.1244473 C58.1464656,21.5413205 57.9815116,21.8731419 57.6520258,22.1207416 C57.3219209,22.3682007 56.8801162,22.4924086 56.3275542,22.4924086 C55.7089065,22.4924086 55.1942766,22.3595478 54.7842695,22.0931227 L54.7842695,21.3874394 C55.3073553,21.7007169 55.7861214,21.8577636 56.2205817,21.8577636 C56.8741224,21.8577636 57.201343,21.6410892 57.201343,21.2059394 C57.201343,21.1218444 57.181969,21.042702 57.1433615,20.970707 C57.1046837,20.898304 57.060167,20.8394923 57.0097409,20.7940048 C56.9589772,20.7487986 56.8770771,20.6976831 56.7640687,20.6394343 C56.65099,20.5832397 56.5561879,20.5411992 56.478762,20.5135802 C56.4016174,20.4866507 56.279731,20.4428234 56.1134123,20.3826329 C55.8693863,20.2919533 55.6762084,20.2137676 55.5333158,20.1469924 C55.3904233,20.0800766 55.248206,19.9943355 55.1053838,19.8890936 C54.9624209,19.7834297 54.8582062,19.6572942 54.7932742,19.5128962 C54.7280045,19.3684841 54.695236,19.1959184 54.695236,18.9969578 C54.695236,18.7433221 54.754526,18.5266336 54.8734437,18.3459497 C54.992291,18.1636195 55.1472133,18.0339103 55.3370988,17.9557387 C55.5273924,17.8770043 55.701351,17.8223292 55.8588762,17.79305 C56.0166827,17.7618573 56.172632,17.746465 56.3275542,17.746465 C56.8330669,17.7464509 57.3144499,17.8675072 57.7721957,18.109465 Z M62.6996393,22.3828895 L61.852569,22.3828895 L61.7897756,21.8577495 C61.2781003,22.2807993 60.7672412,22.4923945 60.2561147,22.4923945 C59.828042,22.4923945 59.496502,22.3764315 59.2616072,22.143394 C59.0264451,21.9110458 58.9093143,21.6175645 58.9093143,21.2604598 C58.9093143,21.0730505 58.9433913,20.8940127 59.0119533,20.721855 C59.0802479,20.5495566 59.1932563,20.3826188 59.3508517,20.2196628 C59.508799,20.0564253 59.7460152,19.9254921 60.0640905,19.825456 C60.3823767,19.7252934 60.7646242,19.6758241 61.2099323,19.6758241 L61.7635214,19.6758241 L61.7635214,19.43139 C61.7635214,19.0270249 61.6887687,18.7516655 61.5409377,18.6030043 C61.3913057,18.4550185 61.1417924,18.38111 60.7915537,18.38111 C60.3631434,18.38111 59.8367652,18.5583609 59.2126163,18.9154657 L59.2126163,18.1912244 C59.8549574,17.8955342 60.484875,17.746465 61.1031709,17.746465 C61.7040203,17.746465 62.1196553,17.8709543 62.3517221,18.1189621 C62.5835215,18.3658724 62.6996252,18.740691 62.6996252,19.2405617 L62.6996252,22.3828895 L62.6996393,22.3828895 Z M61.7728778,20.3093857 L61.2996693,20.3093857 C60.3244093,20.3093857 59.8367652,20.602459 59.8367652,21.1881974 C59.8367652,21.3941648 59.9022319,21.5419958 60.0328978,21.6361226 C60.1639717,21.7299679 60.3269981,21.7762715 60.5236231,21.7762715 C60.7731364,21.7762715 61.0133214,21.7158137 61.2460776,21.5947715 C61.477877,21.4748267 61.6536084,21.3360426 61.7728637,21.1789958 L61.7728637,20.3093857 L61.7728778,20.3093857 Z M65.0324208,17.9650529 L66.4414517,17.9650529 L66.2178972,18.5808866 L65.0324067,18.5808866 L65.0324067,20.9706929 C65.0324067,21.5745673 65.2878293,21.8762935 65.7985478,21.8762935 C65.9950321,21.8762935 66.1935706,21.8343797 66.3966536,21.7496093 L66.3966536,22.3286084 C66.1170451,22.4375647 65.7845343,22.4923945 65.3969263,22.4923945 C64.9517448,22.4923945 64.6248759,22.3637828 64.4167137,22.1064327 C64.2084108,21.8510101 64.103985,21.5140955 64.103985,21.096547 L64.103985,17.3668205 L65.0323927,16.6869693 L65.0323927,17.9650529 L65.0324208,17.9650529 Z" id="Sapienti-sat" fill="#B6B6B6" fill-rule="nonzero"></path>
            </g>
        </g>
    </g>
</svg>