<?xml version="1.0" encoding="UTF-8"?>
<svg width="38px" height="38px" viewBox="0 0 38 38" version="1.1" xmlns="http://www.w3.org/2000/svg" xmlns:xlink="http://www.w3.org/1999/xlink">
    <!-- Generator: Sketch 46.2 (44496) - http://www.bohemiancoding.com/sketch -->
    <title>ic_facebook</title>
    <desc>Created with Sketch.</desc>
    <defs></defs>
    <g id="Page-1" stroke="none" stroke-width="1" fill="none" fill-rule="evenodd">
        <g id="ic_facebook" fill-rule="nonzero">
            <path d="M38,35.625 C38,36.936 36.936,38 35.625,38 L2.375,38 C1.064,38 0,36.936 0,35.625 L0,2.375 C0,1.064 1.064,0 2.375,0 L35.625,0 C36.936,0 38,1.064 38,2.375 L38,35.625 Z" id="Shape" fill="#3B5998"></path>
            <path d="M26.125,38 L26.125,23.75 L30.875,23.75 L32.0625,17.8125 L26.125,17.8125 L26.125,15.4375 C26.125,13.0625 27.314875,11.875 29.6875,11.875 L32.0625,11.875 L32.0625,5.9375 C30.875,5.9375 29.4025,5.9375 27.3125,5.9375 C22.9484375,5.9375 20.1875,9.3586875 20.1875,14.25 L20.1875,17.8125 L15.4375,17.8125 L15.4375,23.75 L20.1875,23.75 L20.1875,38 L26.125,38 Z" id="f" fill="#FFFFFF"></path>
        </g>
    </g>
</svg>