<?xml version="1.0" encoding="UTF-8"?>
<svg width="38px" height="38px" viewBox="0 0 38 38" version="1.1" xmlns="http://www.w3.org/2000/svg" xmlns:xlink="http://www.w3.org/1999/xlink">
    <!-- Generator: Sketch 46.2 (44496) - http://www.bohemiancoding.com/sketch -->
    <title>ic_linkedin</title>
    <desc>Created with Sketch.</desc>
    <defs></defs>
    <g id="Page-1" stroke="none" stroke-width="1" fill="none" fill-rule="evenodd">
        <g id="ic_linkedin" fill-rule="nonzero">
            <path d="M38,35.625 C38,36.936 36.936,38 35.625,38 L2.375,38 C1.064,38 0,36.936 0,35.625 L0,2.375 C0,1.064 1.064,0 2.375,0 L35.625,0 C36.936,0 38,1.064 38,2.375 L38,35.625 Z" id="Shape" fill="#0083BE"></path>
            <rect id="rect11" fill="#FFFFFF" x="4.53128958" y="13.2605222" width="6.36501033" height="19.1456568"></rect>
            <path d="M7.75680936,4.02864064 C5.57909339,4.02864064 4.15626668,5.46034704 4.15626668,7.33684536 C4.15626668,9.173904 5.53584813,10.6450501 7.67250993,10.6450501 L7.71367942,10.6450501 C9.93302616,10.6450501 11.3144527,9.173904 11.3144527,7.33684536 C11.2732833,5.46034704 9.93314148,4.02864064 7.75680936,4.02864064 L7.75680936,4.02864064 Z" id="path13-0" fill="#FFFFFF"></path>
            <path d="M26.5168337,12.8103114 C23.1405898,12.8103114 21.6282742,14.6670899 20.7814744,15.9712516 L20.7814744,13.2605234 L14.4180785,13.2605234 C14.5024933,15.0564125 14.4180785,32.4061802 14.4180785,32.4061802 L20.7813591,32.4061802 L20.7813591,21.7138762 C20.7813591,21.1415396 20.8225286,20.5694336 20.9912427,20.1603911 C21.4504497,19.0174477 22.4982535,17.8334502 24.2563175,17.8334502 C26.5580032,17.8334502 27.4801075,19.5897843 27.4801075,22.1624736 L27.4801075,32.4061802 L33.843734,32.4061802 L33.843734,21.4269583 C33.843734,15.5460642 30.7038975,12.8103114 26.5168337,12.8103114 L26.5168337,12.8103114 Z" id="path15" fill="#FFFFFF"></path>
        </g>
    </g>
</svg>