<?xml version="1.0" encoding="UTF-8"?>
<svg width="38px" height="38px" viewBox="0 0 38 38" version="1.1" xmlns="http://www.w3.org/2000/svg" xmlns:xlink="http://www.w3.org/1999/xlink">
    <!-- Generator: Sketch 46.2 (44496) - http://www.bohemiancoding.com/sketch -->
    <title>ic_twitter</title>
    <desc>Created with Sketch.</desc>
    <defs></defs>
    <g id="Page-1" stroke="none" stroke-width="1" fill="none" fill-rule="evenodd">
        <g id="ic_twitter" fill-rule="nonzero">
            <path d="M38,35.625 C38,36.936 36.936,38 35.625,38 L2.375,38 C1.064,38 0,36.936 0,35.625 L0,2.375 C0,1.064 1.064,0 2.375,0 L35.625,0 C36.936,0 38,1.064 38,2.375 L38,35.625 Z" id="Shape" fill="#55ACEE"></path>
            <path d="M30.8595625,11.749125 C29.9855625,12.1315 29.048625,12.3868125 28.060625,12.5031875 C29.07,11.9118125 29.841875,10.9725 30.20525,9.853875 C29.26475,10.4013125 28.222125,10.8003125 27.1118125,11.01525 C26.2235625,10.0830625 24.9576875,9.5 23.557625,9.5 C20.86675,9.5 18.688875,11.6458125 18.688875,14.295125 C18.688875,14.668 18.731625,15.0373125 18.812375,15.39 C14.7665625,15.18575 11.1779375,13.2774375 8.775625,10.3775625 C8.357625,11.0865 8.115375,11.9094375 8.115375,12.7905625 C8.115375,14.451875 8.9775,15.919625 10.281375,16.7805625 C9.4845625,16.7544375 8.732875,16.5395 8.077375,16.1796875 C8.0761875,16.199875 8.0761875,16.2200625 8.0761875,16.2414375 C8.0761875,18.563 9.7553125,20.503375 11.9830625,20.9439375 C11.57575,21.0508125 11.145875,21.1125625 10.699375,21.1125625 C10.385875,21.1125625 10.081875,21.0840625 9.785,21.0270625 C10.4025,22.9318125 12.200375,24.317625 14.33075,24.358 C12.670625,25.642875 10.56875,26.41 8.2875625,26.41 C7.8956875,26.41 7.5061875,26.388625 7.125,26.3435 C9.279125,27.7031875 11.8405625,28.4964375 14.5908125,28.4964375 C23.54575,28.4964375 28.4441875,21.1885625 28.4441875,14.850875 C28.4441875,14.6454375 28.43825,14.43525 28.4299375,14.2321875 C29.3799375,13.554125 30.207625,12.7098125 30.8595625,11.749125 Z" id="Shape" fill="#FFFFFF"></path>
        </g>
    </g>
</svg>