<svg xmlns="http://www.w3.org/2000/svg" viewBox="0 0 197 30"><g fill="none"><path fill="#020202" d="M97 13h11v17H97zM0 0h11v30H0zm19 9.38L25.83 0 42 20.63 35.17 30"/><path fill="#020202" d="M36 0h11v30H36zM15 0h11v30H15zm87.47 24l7.46-9.23L123 0h-14.93L95 14.77"/><path fill="#020202" d="M82 0l13.07 14.77 7.46 9.23 7.47-9.23L96.93 0"/><path fill="#020202" d="M88 30L73.14 15 88 0H73.14L62 11.25v7.5L73.14 30"/><path fill="#020202" d="M47 0l14.86 15L47 30h14.86L73 18.75v-7.5L61.86 0"/><path fill="#000" d="M114 22.16h6.3v7.27H114m22.6-18.83c0-4.2-.5-6.07-2.75-6.07-2.7 0-2.95 2.6-2.95 10.15 0 8.57.28 10.8 3.1 10.8 2.48 0 2.84-2.88 2.84-7.37h6.55v1.04c0 6.23-1.77 10.88-10.18 10.88-8.7 0-9.37-6.5-9.37-15.2 0-7.4.44-14.8 10.02-14.8 5.97 0 9.25 2.6 9.25 9.4v1.2h-6.55zM155.73 30c-8.93 0-10.15-5.82-10.15-15s1.22-15 10.15-15c9.57 0 10.14 7 10.14 15s-.57 15-10.14 15zm-.05-4.53c2.76 0 3.16-2.54 3.16-10.47 0-7.92-.4-10.47-3.16-10.47-2.7 0-3.07 2.55-3.07 10.47 0 7.93.4 10.47 3.1 10.47zM169.64.57h9.94l3.56 18.96h.08L186.66.57h9.82v28.86h-6.3V6.96h-.1l-4.4 22.47h-5.25L175.8 6.96h-.1v22.47h-6.06"/></g></svg>