<?xml version="1.0" encoding="UTF-8"?>
<svg width="159px" height="41px" viewBox="0 0 159 41" version="1.1" xmlns="http://www.w3.org/2000/svg" xmlns:xlink="http://www.w3.org/1999/xlink">
    <!-- Generator: sketchtool 46.2 (44496) - http://www.bohemiancoding.com/sketch -->
    <title>B8BACD58-2EB1-4791-8096-D7510655ABC4</title>
    <desc>Created with sketchtool.</desc>
    <defs></defs>
    <g id="Page-1" stroke="none" stroke-width="1" fill="none" fill-rule="evenodd">
        <g id="Main_phone" transform="translate(-81.000000, -3812.000000)" fill-rule="nonzero" fill="#FFFFFF">
            <g id="linkedin" transform="translate(81.000000, 3812.000000)">
                <polygon id="Shape" points="0.26744339 6.54852 6.35752068 6.54852 6.35752068 29.79388 17.0953566 29.79388 17.0953566 33.93816 0.26744339 33.93816"></polygon>
                <path d="M25.7091681,9.596952 C25.7091681,11.303864 24.4670278,12.685728 22.4235275,12.685728 C20.5003281,12.685728 19.2581878,11.304192 19.2581878,9.596952 C19.2581878,7.849368 20.5404285,6.508176 22.5037281,6.508176 C24.4670278,6.508176 25.6690678,7.849696 25.7091681,9.596952 Z M19.4185892,33.93816 L19.4185892,15.476024 L25.5089898,15.476024 L25.5089898,33.93816 L19.4185892,33.93816 Z" id="Shape"></path>
                <path d="M29.314318,21.463336 C29.314318,18.984312 29.2337939,17.26428 29.1539166,15.476352 L34.7097539,15.476352 L34.7233363,17.88748 L34.8436373,17.88748 C35.6449973,16.58696 37.6079736,14.677016 40.8936142,14.677016 C44.9000908,14.677016 47.9053525,17.399744 47.9053525,23.251592 L47.9053525,33.938488 L41.8152753,33.938488 L41.8152753,23.983032 C41.8152753,21.422664 40.9337146,19.675408 38.7298129,19.675408 C37.0472156,19.675408 36.0453539,20.853912 35.6045736,21.992072 C35.4441722,22.398464 35.4043953,22.967544 35.4043953,23.536296 L35.4043953,33.938816 L29.314318,33.938816 L29.314318,21.463336 L29.314318,21.463336 Z" id="Shape"></path>
                <path d="M57.8010814,23.494968 L57.8809586,23.494968 C58.321739,22.64184 58.8026197,21.829056 59.2835003,21.097616 L63.2502,15.476024 L70.5820942,15.476024 L63.5703559,23.170248 L71.5836325,33.93816 L64.0913369,33.93816 L59.3236007,26.82712 L57.8010814,28.777408 L57.8010814,33.937832 L51.7110041,33.937832 L51.7110041,5.085312 L57.8010814,5.085312 L57.8010814,23.494968 Z" id="Shape"></path>
                <path d="M76.4719932,27.03048 C76.6320712,29.590848 79.1564522,30.809696 82.0013125,30.809696 C84.0845898,30.809696 85.7675105,30.524992 87.4103308,29.955912 L88.2116908,33.084376 C86.2086142,33.937832 83.7647573,34.344224 81.1200753,34.344224 C74.46924,34.344224 70.6626183,31.500464 70.6626183,25.282568 C70.6626183,20.243504 73.7477573,15.381232 80.5589939,15.381232 C86.8896732,15.381232 89.2937532,19.674424 89.2937532,24.5918 C89.2937532,25.648288 89.1737756,26.58276 89.0935749,27.030152 L76.4719932,27.030152 L76.4719932,27.03048 Z M83.6434861,22.8042 C83.6434861,21.300648 83.0025275,18.780952 80.1980908,18.780952 C77.6339329,18.780952 76.5919708,21.17896 76.4318929,22.8042 L83.6434861,22.8042 Z" id="Shape"></path>
                <path d="M111.195976,5.08564 L111.195976,29.06244 C111.195976,31.297104 111.2765,32.596968 111.356378,33.93816 L105.947036,33.93816 L105.707081,31.053072 L105.58678,31.053072 C104.38474,33.247064 101.980983,34.385224 99.456602,34.385224 C94.8088434,34.385224 91.0824224,31.41912 91.0824224,25.242552 C91.0426454,18.537576 95.1694231,14.636344 99.857282,14.636344 C102.301462,14.636344 104.144138,15.530144 105.025698,16.871336 L105.105899,16.871336 L105.105899,5.08564 L111.195976,5.08564 L111.195976,5.08564 Z M105.106222,23.53564 C105.106222,23.210592 105.106222,22.763528 105.026022,22.398136 C104.665442,20.77224 103.343101,19.391032 101.460002,19.391032 C98.6555654,19.391032 97.2533471,21.910728 97.2533471,25.039848 C97.2533471,28.412344 98.8958441,30.525648 101.419902,30.525648 C103.183023,30.525648 104.625342,29.306472 104.985921,27.559216 C105.066122,27.112152 105.106222,26.624416 105.106222,26.13668 L105.106222,23.53564 L105.106222,23.53564 Z" id="Shape"></path>
                <path d="M156.537494,0.143992 L119.776479,0.143992 C118.879395,0.143992 118.145947,0.888552 118.145947,1.797768 L118.145947,39.083168 C118.145947,39.992712 118.879395,40.736944 119.776479,40.736944 L156.537494,40.736944 C157.434578,40.736944 158.168026,39.992712 158.168026,39.083168 L158.168026,1.79744 C158.168026,0.888224 157.434578,0.143992 156.537494,0.143992 Z M131.037883,33.263136 L125.483016,33.263136 L125.483016,15.100136 L131.037883,15.100136 L131.037883,33.263136 Z M128.305562,13.089168 C126.551172,13.089168 125.418338,11.828992 125.418338,10.272304 C125.418338,8.678552 126.587715,7.455112 128.378648,7.455112 C130.169258,7.455112 131.266196,8.678552 131.302092,10.272304 C131.302416,11.828992 130.169581,13.089168 128.305562,13.089168 Z M151.638462,33.265104 L146.082948,33.265104 L146.082948,23.558928 C146.082948,21.223896 145.279001,19.629816 143.268809,19.629816 C141.734001,19.629816 140.820748,20.704672 140.418775,21.742464 C140.272603,22.113104 140.23606,22.632328 140.23606,23.151224 L140.23606,33.261824 L134.680869,33.261824 L134.680869,21.26096 C134.680869,19.000056 134.607783,16.73128 134.534697,15.100136 L140.027473,15.100136 L140.021976,17.999328 L140.213422,17.999328 C140.94396,16.812952 142.245281,15.070944 145.242781,15.070944 C148.897086,15.070944 151.638462,17.554232 151.638462,22.892104 L151.638462,33.265104 L151.638462,33.265104 Z" id="Shape"></path>
            </g>
        </g>
    </g>
</svg>