<svg xmlns="http://www.w3.org/2000/svg">

  <symbol id="logo" viewBox="0 0 540 121.5"><linearGradient id="a" x1="26.98" x2="342.38" y1="61.44" y2="61.44" gradientUnits="userSpaceOnUse"><stop offset="0" stop-color="#F9BA39"/><stop offset=".04" stop-color="#F4A462"/><stop offset=".14" stop-color="#EB6289"/><stop offset=".18" stop-color="#E83C8A"/><stop offset=".45" stop-color="#8D96CB"/><stop offset=".68" stop-color="#A81D71"/><stop offset="1" stop-color="#E56A9E"/></linearGradient><path fill="url(#a)" fill-rule="evenodd" d="M309.3 61.4l-4.7 5.9v31.9h-28.3V67.3l-4.7-5.9-26.5-30.2-30.2 30.2 37.8 37.8h-37.8L200.7 85l-14.2 14.2h-64v-.1L98.9 69.2v30H70.6V23.6h28.3l23.6 29.9V23.6h64l14.2 14.2 14.2-14.2h61.4l14.2 16.2 14.2-16.2h37.8l-33.2 37.8zM150.9 25.8V97l35.6-35.6-35.6-35.6zM27 23.6h28.3v75.6H27V23.6z" clip-rule="evenodd"/><path fill="none" d="M150.8 23.6l-10.4 27.8-14.5-1.4 24.9-26.4z" clip-rule="evenodd"/><linearGradient id="b" x1="31.86" x2="31.86" y1="87.63" y2="23.65" gradientUnits="userSpaceOnUse"><stop offset="0" stop-color="#FAC52F"/><stop offset="1" stop-color="#E83753"/></linearGradient><path fill="url(#b)" fill-rule="evenodd" d="M27 23.6h.3l9.5 50.6L27 87.6v-64z" clip-rule="evenodd"/><linearGradient id="c" x1="36.73" x2="55.33" y1="77.74" y2="77.74" gradientUnits="userSpaceOnUse"><stop offset="0" stop-color="#E72476"/><stop offset="1" stop-color="#E93D8B"/></linearGradient><path fill="url(#c)" fill-rule="evenodd" d="M55.3 68v19.6L36.7 74.2 55.3 68z" clip-rule="evenodd"/><linearGradient id="d" x1="30.6" x2="50.12" y1="102.72" y2="82.5" gradientUnits="userSpaceOnUse"><stop offset="0" stop-color="#FCD05A"/><stop offset="1" stop-color="#EB585D"/></linearGradient><path fill="url(#d)" fill-rule="evenodd" d="M36.7 74.2l18.6 13.3v11.7H27V87.6l9.7-13.4z" clip-rule="evenodd"/><linearGradient id="e" x1="27.26" x2="55.33" y1="48.94" y2="48.94" gradientUnits="userSpaceOnUse"><stop offset="0" stop-color="#E7304A"/><stop offset="1" stop-color="#EF7A94"/></linearGradient><path fill="url(#e)" fill-rule="evenodd" d="M55.3 23.6V68l-18.6 6.3-9.5-50.6h28.1z" clip-rule="evenodd"/><linearGradient id="f" x1="69.71" x2="86.98" y1="75.81" y2="76.71" gradientUnits="userSpaceOnUse"><stop offset="0" stop-color="#EA599B"/><stop offset="1" stop-color="#E274AB"/></linearGradient><path fill="url(#f)" fill-rule="evenodd" d="M70.6 59.2l17.6-5.8-3.9 45.8H70.6v-40z" clip-rule="evenodd"/><linearGradient id="g" x1="95.53" x2="149.4" y1="38.53" y2="38.53" gradientUnits="userSpaceOnUse"><stop offset="0" stop-color="#D874AC"/><stop offset="1" stop-color="#AC4392"/></linearGradient><path fill="url(#g)" fill-rule="evenodd" d="M113.1 41.6L88.2 53.4l10.7-29.7 14.2 17.9zm9.4-4.6V23.6h28.1L122.5 37z" clip-rule="evenodd"/><linearGradient id="h" x1="73.1" x2="91.89" y1="29.79" y2="48.57" gradientUnits="userSpaceOnUse"><stop offset="0" stop-color="#ED6BA5"/><stop offset="1" stop-color="#F6BDD8"/></linearGradient><path fill="url(#h)" fill-rule="evenodd" d="M88.2 53.4l-17.6 5.8V23.6h28.3L88.2 53.4z" clip-rule="evenodd"/><linearGradient id="i" x1="103.38" x2="128.73" y1="73.57" y2="88.81" gradientUnits="userSpaceOnUse"><stop offset="0" stop-color="#7F57A0"/><stop offset=".59" stop-color="#8288C2"/><stop offset="1" stop-color="#84A6D7"/></linearGradient><path fill="url(#i)" fill-rule="evenodd" d="M102.9 74.3l3-3.2 25.2 5.1-8.6 22.9-19.6-24.8z" clip-rule="evenodd"/><linearGradient id="j" x1="122.92" x2="252.63" y1="89.17" y2="89.17" gradientUnits="userSpaceOnUse"><stop offset="0" stop-color="#9C92C6"/><stop offset="0" stop-color="#9C92C6"/><stop offset=".52" stop-color="#9A71AF"/><stop offset="1" stop-color="#764494"/></linearGradient><path fill="url(#j)" fill-rule="evenodd" d="M252.6 99.2h-37.8L200.6 85l-14.2 14.2h-63.6l28-5.1v3l3.6-3.6 78-14.3 20.2 20z" clip-rule="evenodd"/><linearGradient id="k" x1="124.22" x2="121.9" y1="73.03" y2="46.56" gradientUnits="userSpaceOnUse"><stop offset=".06" stop-color="#9688C0"/><stop offset=".49" stop-color="#936AAB"/><stop offset="1" stop-color="#904795"/></linearGradient><path fill="url(#k)" fill-rule="evenodd" d="M140.4 51.4l-9.3 24.8-25.1-5.1L125.9 50l14.5 1.4z" clip-rule="evenodd"/><linearGradient id="l" x1="150.82" x2="229.97" y1="42.54" y2="42.54" gradientUnits="userSpaceOnUse"><stop offset="0" stop-color="#5D256C"/><stop offset=".5" stop-color="#832779"/><stop offset="1" stop-color="#A62B87"/></linearGradient><path fill="url(#l)" fill-rule="evenodd" d="M230 46.3l-15.1 15.1-64-37.8h.1l79 22.7zm-79.2-22.7z" clip-rule="evenodd"/><linearGradient id="m" x1="144.16" x2="135.54" y1="77.31" y2="98.64" gradientUnits="userSpaceOnUse"><stop offset="0" stop-color="#A0A6D4"/><stop offset="1" stop-color="#A5BBE2"/></linearGradient><path fill="url(#m)" fill-rule="evenodd" d="M150.9 80v14.1L123 99.2h-.4v-.1l8.6-22.9 19.7 3.8z" clip-rule="evenodd"/><linearGradient id="n" x1="148.06" x2="140.81" y1="51.72" y2="78.79" gradientUnits="userSpaceOnUse"><stop offset="0" stop-color="#9D7AB5"/><stop offset=".33" stop-color="#A28DC2"/><stop offset="1" stop-color="#ABADD8"/></linearGradient><path fill="url(#n)" fill-rule="evenodd" d="M131.1 76.2l5.4-14.5 3.9-10.3 10.5 1v27.5l-19.8-3.7z" clip-rule="evenodd"/><linearGradient id="o" x1="150.86" x2="276.3" y1="45.5" y2="45.5" gradientUnits="userSpaceOnUse"><stop offset="0" stop-color="#9A2962"/><stop offset=".25" stop-color="#AF2D70"/><stop offset=".72" stop-color="#D6378C"/><stop offset="1" stop-color="#CB4A95"/></linearGradient><path fill="url(#o)" fill-rule="evenodd" d="M276.3 67.4l-4.8-5.9L245 31.3l-15 15-79.1-22.7h35.6l14.2 14.2 14.2-14.2h50.7l10.7 43.8z" clip-rule="evenodd"/><linearGradient id="p" x1="99.15" x2="120.17" y1="50.39" y2="63.02" gradientUnits="userSpaceOnUse"><stop offset="0" stop-color="#D880B4"/><stop offset="1" stop-color="#874192"/></linearGradient><path fill="url(#p)" fill-rule="evenodd" d="M122.5 53.6l-19.6 20.8-4-5.1v30H84.3l3.9-45.8 24.9-11.8 9.4 11.9zm28.1-30h.1l-28.2 29.9V37l28.1-13.4z" clip-rule="evenodd"/><linearGradient id="q" x1="140.88" x2="153.62" y1="29.62" y2="50.82" gradientUnits="userSpaceOnUse"><stop offset="0" stop-color="#774594"/><stop offset=".11" stop-color="#7A4997"/><stop offset="1" stop-color="#926EAE"/></linearGradient><path fill="url(#q)" fill-rule="evenodd" d="M150.9 52.5l-10.5-1 10.4-27.8.1 28.8z" clip-rule="evenodd"/><linearGradient id="r" x1="154.5" x2="188.13" y1="88.14" y2="88.14" gradientUnits="userSpaceOnUse"><stop offset="0" stop-color="#A0A6D4"/><stop offset=".02" stop-color="#A0A5D3"/><stop offset="1" stop-color="#9985BD"/></linearGradient><path fill="url(#r)" fill-rule="evenodd" d="M154.5 93.4l10.6-10.6 23.1 4.4-33.7 6.2z" clip-rule="evenodd"/><linearGradient id="s" x1="180.33" x2="194.93" y1="87.23" y2="36.29" gradientUnits="userSpaceOnUse"><stop offset="0" stop-color="#A087BE"/><stop offset=".17" stop-color="#9976B3"/><stop offset=".58" stop-color="#88529C"/><stop offset="1" stop-color="#7A5AA2"/></linearGradient><path fill="url(#s)" fill-rule="evenodd" d="M148.7 23.6h2.2l64 37.8 17.7 17.7-44.4 8.1-23.1-4.4 21.4-21.4-37.8-37.8z" clip-rule="evenodd"/><linearGradient id="t" x1="295.82" x2="295.82" y1="85.72" y2="54.46" gradientUnits="userSpaceOnUse"><stop offset="0" stop-color="#B4398D"/><stop offset="1" stop-color="#B41D82"/></linearGradient><path fill="url(#t)" fill-rule="evenodd" d="M276.2 67.3zm39.2-12.8l-6.1 7-4.7 5.9v18.4l-28.3-18.4 39.1-12.9z" clip-rule="evenodd"/><linearGradient id="u" x1="269.47" x2="323.21" y1="60.79" y2="5.14" gradientUnits="userSpaceOnUse"><stop offset="0" stop-color="#E78DBB"/><stop offset=".47" stop-color="#E06F96"/><stop offset="1" stop-color="#D84D72"/></linearGradient><path fill="url(#u)" fill-rule="evenodd" d="M290.4 39.8l14.2-16.2h37.8l-27 30.8-39.1 12.8-10.8-43.7h10.7l14.2 16.3zm-14.2 27.5z" clip-rule="evenodd"/><linearGradient id="v" x1="288.92" x2="291.69" y1="100.34" y2="68.65" gradientUnits="userSpaceOnUse"><stop offset="0" stop-color="#CA2485"/><stop offset=".28" stop-color="#B8207A"/><stop offset="1" stop-color="#8D1862"/></linearGradient><path fill="url(#v)" fill-rule="evenodd" d="M276.3 67.3l28.3 18.4v13.5h-28.3V67.3" clip-rule="evenodd"/><linearGradient id="w" x1="125.91" x2="150.82" y1="37.54" y2="37.54" gradientUnits="userSpaceOnUse"><stop offset="0" stop-color="#7F4091"/><stop offset="1" stop-color="#7F3F91"/></linearGradient><path fill="url(#w)" fill-rule="evenodd" d="M150.8 23.6l-10.4 27.8-14.5-1.4 24.9-26.4z" clip-rule="evenodd"/><path fill="#3E3E3E" d="M371.7 36.7h.2l7.3 34h-14.8l7.3-34zm-29.3 62.6h15.9l3.5-16h20.1l3.5 16h15.9l-20-75.7h-18.9l-20 75.7zm80.3-64.5h6.5c11.6 0 13 8.8 13 26 0 20.6-2.1 27.2-12.7 27.2h-6.8V34.8zm-15.3 64.5h24.1c20.2 0 26-12.2 26-38.9 0-22.4-3.9-36.8-25-36.8h-25v75.7zm57.2-23.7v3.1c0 14 6.8 22 24.1 22 16.5 0 26.3-7.2 26.3-23.2 0-9.3-3-14.9-14.4-20l-11.8-5.1c-6.5-2.6-7.8-5.6-7.8-10.3 0-4.6 1.8-8.8 8.7-8.8 5.9 0 8.3 4 8.3 11.2h14.6v-2.1c0-14.5-9.9-20.4-23.4-20.4-14.5 0-23.4 7.4-23.4 22.3 0 12.5 6.3 18.3 19.8 22.9 10.2 3.4 13.6 6.1 13.6 12.9 0 6.4-4.5 9.3-9.1 9.3-8.1 0-10.1-4.6-10.1-11.7v-2.2h-15.4z"/></symbol>







</svg>